<?xml version="1.0" encoding="utf-8"?>
<!-- Generator: Adobe Illustrator 14.0.0, SVG Export Plug-In . SVG Version: 6.00 Build 43363)  -->
<!DOCTYPE svg PUBLIC "-//W3C//DTD SVG 1.1//EN" "http://www.w3.org/Graphics/SVG/1.1/DTD/svg11.dtd">
<svg version="1.1" id="Layer_1" xmlns="http://www.w3.org/2000/svg" xmlns:xlink="http://www.w3.org/1999/xlink" x="0px" y="0px"
	 width="320px" height="80px" viewBox="0 0 320 80" enable-background="new 0 0 320 80" xml:space="preserve">
<polygon fill="#F5F5F5" points="243.249,27.608 250.05,23.682 240.893,7.819 231.822,7.819 "/>
<polygon fill="#F5F5F5" points="254.98,23.683 261.783,27.609 273.211,7.819 264.143,7.819 "/>
<path fill="#F5F5F5" d="M248.486,20.976c-1.741-2.989-4.664-4.529-6.536-3.446c-1.866,1.084-1.984,4.378-0.265,7.371l0,0
	l7.03,12.178l6.8-3.928L248.486,20.976L248.486,20.976z"/>
<path fill="#F5F5F5" d="M263.346,24.901c1.719-3,1.592-6.301-0.283-7.382c-1.873-1.075-4.785,0.47-6.517,3.455l0,0l-7.03,12.18
	l6.801,3.924L263.346,24.901L263.346,24.901z"/>
<polygon fill="#F5F5F5" points="76.567,70.087 80.201,70.087 80.201,71.001 75.517,71.001 75.517,63.593 76.567,63.593 "/>
<path fill="#F5F5F5" d="M84.687,66.26c0.293,0.262,0.441,0.684,0.441,1.258V71h-0.892l-0.058-0.438
	c-0.525,0.381-1.131,0.574-1.816,0.574c-0.289,0-0.549-0.054-0.777-0.166c-0.227-0.111-0.405-0.269-0.531-0.473
	c-0.125-0.195-0.188-0.43-0.188-0.688c0-0.418,0.148-0.767,0.445-1.049c0.296-0.277,0.692-0.479,1.189-0.609
	c0.494-0.127,1.044-0.2,1.645-0.219v-0.246c0-0.347-0.068-0.594-0.205-0.75c-0.138-0.154-0.372-0.233-0.697-0.233
	c-0.557,0-1.134,0.196-1.738,0.594l-0.434-0.685c0.732-0.504,1.497-0.758,2.297-0.758C83.954,65.855,84.393,65.992,84.687,66.26
	 M82.094,70.152c0.117,0.104,0.293,0.152,0.53,0.152c0.518,0,1.024-0.154,1.521-0.461v-1.191c-0.664,0.035-1.201,0.138-1.611,0.312
	c-0.412,0.177-0.616,0.427-0.616,0.746C81.917,69.906,81.977,70.055,82.094,70.152"/>
<path fill="#F5F5F5" d="M90.44,66.182c0.297,0.219,0.52,0.518,0.662,0.889c0.146,0.381,0.218,0.809,0.218,1.279
	c0,0.662-0.142,1.201-0.428,1.613c-0.287,0.42-0.646,0.713-1.08,0.9c-0.433,0.179-0.884,0.273-1.35,0.273
	c-0.51,0-1.108-0.111-1.795-0.328v-7.675l0.984-0.114v3.283c0.542-0.297,1.101-0.447,1.68-0.447
	C89.776,65.855,90.144,65.964,90.44,66.182 M89.754,69.859c0.343-0.307,0.515-0.814,0.515-1.533c0-0.52-0.098-0.917-0.298-1.201
	c-0.196-0.285-0.501-0.421-0.914-0.421c-0.449,0-0.919,0.11-1.405,0.329v3.197c0.289,0.066,0.549,0.092,0.777,0.092
	C88.97,70.322,89.412,70.17,89.754,69.859"/>
<path fill="#F5F5F5" d="M93.183,70.788c-0.357-0.233-0.625-0.55-0.799-0.949c-0.175-0.397-0.263-0.851-0.263-1.354
	c0-0.606,0.115-1.108,0.343-1.5c0.229-0.393,0.538-0.682,0.925-0.857c0.39-0.18,0.832-0.271,1.327-0.271
	c0.533,0,0.979,0.117,1.336,0.351c0.358,0.235,0.623,0.55,0.799,0.942c0.176,0.395,0.265,0.846,0.265,1.351
	c0,0.614-0.115,1.123-0.342,1.51c-0.229,0.394-0.539,0.683-0.928,0.857c-0.387,0.181-0.829,0.272-1.323,0.272
	C93.987,71.139,93.542,71.021,93.183,70.788 M96.086,68.484c0-0.555-0.12-0.996-0.359-1.33c-0.242-0.332-0.602-0.495-1.081-0.495
	c-0.533,0-0.917,0.163-1.148,0.483c-0.233,0.324-0.348,0.772-0.348,1.342c0,0.566,0.121,1.016,0.365,1.348
	c0.243,0.335,0.608,0.501,1.097,0.501C95.595,70.333,96.086,69.719,96.086,68.484"/>
<path fill="#F5F5F5" d="M101.115,65.883c0.106,0.016,0.221,0.035,0.343,0.068l-0.183,1.02c-0.259-0.097-0.496-0.142-0.71-0.142
	c-0.243,0-0.466,0.052-0.672,0.163c-0.207,0.105-0.405,0.306-0.595,0.6V71h-0.982v-5.018l0.982-0.101v0.72
	c0.19-0.246,0.412-0.431,0.663-0.557c0.25-0.126,0.518-0.189,0.799-0.189C100.89,65.855,101.006,65.863,101.115,65.883"/>
<path fill="#F5F5F5" d="M105.622,66.26c0.292,0.262,0.439,0.684,0.439,1.258V71h-0.89l-0.059-0.438
	c-0.525,0.381-1.13,0.574-1.816,0.574c-0.289,0-0.548-0.054-0.777-0.166c-0.228-0.111-0.405-0.269-0.531-0.473
	c-0.126-0.195-0.188-0.43-0.188-0.688c0-0.418,0.148-0.767,0.446-1.049c0.297-0.277,0.693-0.479,1.188-0.609
	c0.495-0.127,1.043-0.2,1.645-0.219v-0.246c0-0.347-0.068-0.594-0.206-0.75c-0.137-0.154-0.369-0.233-0.696-0.233
	c-0.557,0-1.134,0.196-1.737,0.594l-0.436-0.685c0.733-0.504,1.498-0.758,2.298-0.758C104.889,65.855,105.331,65.992,105.622,66.26
	 M103.028,70.152c0.118,0.104,0.294,0.152,0.531,0.152c0.519,0,1.026-0.154,1.52-0.461v-1.191c-0.662,0.035-1.2,0.138-1.61,0.312
	c-0.413,0.177-0.618,0.427-0.618,0.746C102.85,69.906,102.911,70.055,103.028,70.152"/>
<path fill="#F5F5F5" d="M110.586,70.818c-0.396,0.209-0.816,0.318-1.257,0.318c-0.472,0-0.845-0.137-1.119-0.406
	c-0.275-0.271-0.413-0.676-0.413-1.219v-2.74h-1.004v-0.775h1.004v-1.133l0.984-0.161v1.294h1.69l-0.103,0.775h-1.588v2.58
	c0,0.64,0.235,0.965,0.709,0.965c0.135,0,0.269-0.02,0.398-0.047c0.129-0.031,0.271-0.086,0.423-0.148L110.586,70.818z"/>
<path fill="#F5F5F5" d="M112.105,70.788c-0.356-0.233-0.624-0.55-0.798-0.949c-0.176-0.397-0.262-0.851-0.262-1.354
	c0-0.606,0.113-1.108,0.342-1.5c0.228-0.393,0.537-0.682,0.924-0.857c0.39-0.18,0.832-0.271,1.327-0.271
	c0.534,0,0.98,0.117,1.337,0.351c0.357,0.235,0.625,0.55,0.799,0.942c0.175,0.395,0.263,0.846,0.263,1.351
	c0,0.614-0.113,1.123-0.341,1.51c-0.229,0.394-0.539,0.683-0.928,0.857c-0.387,0.181-0.83,0.272-1.324,0.272
	C112.911,71.139,112.465,71.021,112.105,70.788 M115.01,68.484c0-0.555-0.12-0.996-0.36-1.33c-0.241-0.332-0.601-0.495-1.08-0.495
	c-0.533,0-0.917,0.163-1.148,0.483c-0.232,0.324-0.348,0.772-0.348,1.342c0,0.566,0.121,1.016,0.366,1.348
	c0.242,0.335,0.607,0.501,1.097,0.501C114.519,70.333,115.01,69.719,115.01,68.484"/>
<path fill="#F5F5F5" d="M117.375,64.879c-0.106-0.064-0.192-0.146-0.257-0.255c-0.064-0.104-0.096-0.224-0.096-0.347
	c0-0.127,0.032-0.242,0.096-0.353c0.065-0.104,0.151-0.192,0.257-0.259c0.107-0.063,0.221-0.098,0.344-0.098
	c0.128,0,0.246,0.033,0.354,0.098c0.106,0.064,0.192,0.152,0.257,0.259c0.064,0.109,0.097,0.226,0.097,0.353
	c0,0.123-0.032,0.24-0.097,0.347c-0.065,0.108-0.151,0.19-0.257,0.255c-0.107,0.068-0.225,0.098-0.354,0.098
	C117.596,64.977,117.483,64.947,117.375,64.879 M117.239,71v-5.004l0.982-0.113V71H117.239z"/>
<path fill="#F5F5F5" d="M122.621,65.883c0.106,0.016,0.221,0.035,0.343,0.068l-0.185,1.02c-0.258-0.097-0.494-0.142-0.708-0.142
	c-0.245,0-0.468,0.052-0.675,0.163c-0.206,0.105-0.403,0.306-0.594,0.6V71h-0.982v-5.018l0.982-0.101v0.72
	c0.19-0.246,0.413-0.431,0.663-0.557c0.252-0.126,0.52-0.189,0.799-0.189C122.396,65.855,122.514,65.863,122.621,65.883"/>
<path fill="#F5F5F5" d="M127.785,68.668H124.3c0.006,0.573,0.146,0.986,0.417,1.245c0.271,0.257,0.62,0.394,1.045,0.394
	c0.305,0,0.57-0.041,0.794-0.121c0.226-0.072,0.474-0.189,0.749-0.354l0.378,0.699c-0.626,0.402-1.28,0.605-1.967,0.605
	c-0.731,0-1.316-0.203-1.752-0.609c-0.441-0.406-0.658-1.059-0.658-1.941c0-0.502,0.091-0.955,0.274-1.369
	c0.184-0.406,0.456-0.736,0.817-0.986c0.362-0.248,0.807-0.375,1.332-0.375c0.441,0,0.819,0.094,1.131,0.271
	c0.313,0.178,0.548,0.424,0.708,0.736c0.16,0.313,0.239,0.672,0.239,1.07L127.785,68.668z M124.797,66.979
	c-0.226,0.235-0.371,0.558-0.441,0.967h2.492v-0.043c0-0.424-0.097-0.743-0.292-0.957c-0.194-0.217-0.47-0.322-0.828-0.322
	C125.332,66.622,125.021,66.736,124.797,66.979"/>
<path fill="#F5F5F5" d="M136,63.021V71h-0.89l-0.045-0.363c-0.275,0.158-0.555,0.279-0.835,0.368
	c-0.282,0.089-0.545,0.134-0.788,0.134c-0.442,0-0.82-0.104-1.132-0.304c-0.313-0.198-0.551-0.495-0.714-0.872
	c-0.164-0.375-0.246-0.818-0.246-1.328c0-0.58,0.112-1.078,0.336-1.494c0.225-0.422,0.533-0.74,0.921-0.959
	c0.387-0.218,0.829-0.326,1.325-0.326c0.327,0,0.689,0.054,1.085,0.151v-2.872L136,63.021z M132.745,69.878
	c0.228,0.274,0.551,0.412,0.971,0.412c0.44,0,0.876-0.126,1.302-0.377v-3.103c-0.344-0.123-0.679-0.178-1.006-0.178
	c-0.313,0-0.59,0.071-0.827,0.211c-0.242,0.145-0.432,0.362-0.573,0.657c-0.141,0.298-0.211,0.672-0.211,1.11
	C132.401,69.184,132.514,69.607,132.745,69.878"/>
<path fill="#F5F5F5" d="M141.681,68.668h-3.486c0.006,0.573,0.146,0.986,0.416,1.245c0.271,0.257,0.621,0.394,1.045,0.394
	c0.306,0,0.57-0.041,0.794-0.121c0.225-0.072,0.475-0.189,0.75-0.354l0.375,0.699c-0.625,0.402-1.279,0.605-1.966,0.605
	c-0.73,0-1.315-0.203-1.752-0.609c-0.438-0.406-0.658-1.059-0.658-1.941c0-0.502,0.092-0.955,0.274-1.369
	c0.185-0.406,0.454-0.736,0.818-0.986c0.361-0.248,0.805-0.375,1.33-0.375c0.443,0,0.819,0.094,1.131,0.271
	c0.313,0.178,0.548,0.424,0.709,0.736c0.16,0.313,0.239,0.672,0.239,1.07L141.681,68.668z M138.691,66.979
	c-0.225,0.235-0.372,0.558-0.44,0.967h2.492v-0.043c0-0.424-0.096-0.743-0.292-0.957c-0.194-0.217-0.47-0.322-0.828-0.322
	C139.228,66.622,138.917,66.736,138.691,66.979"/>
<path fill="#F5F5F5" d="M148.445,65.883c0.105,0.016,0.22,0.035,0.343,0.068l-0.184,1.02c-0.259-0.097-0.496-0.142-0.708-0.142
	c-0.244,0-0.469,0.052-0.675,0.163c-0.207,0.105-0.403,0.306-0.593,0.6V71h-0.982v-5.018l0.982-0.101v0.72
	c0.19-0.246,0.411-0.431,0.662-0.557c0.253-0.126,0.518-0.189,0.8-0.189C148.219,65.855,148.338,65.863,148.445,65.883"/>
<path fill="#F5F5F5" d="M153.608,68.668h-3.485c0.008,0.573,0.147,0.986,0.418,1.245c0.27,0.257,0.618,0.394,1.045,0.394
	c0.306,0,0.569-0.041,0.794-0.121c0.224-0.072,0.474-0.189,0.748-0.354l0.379,0.699c-0.626,0.402-1.281,0.605-1.967,0.605
	c-0.731,0-1.315-0.203-1.751-0.609c-0.44-0.406-0.658-1.059-0.658-1.941c0-0.502,0.09-0.955,0.274-1.369
	c0.183-0.406,0.454-0.736,0.818-0.986c0.361-0.248,0.805-0.375,1.33-0.375c0.44,0,0.819,0.094,1.13,0.271s0.549,0.424,0.708,0.736
	c0.16,0.313,0.24,0.672,0.24,1.07L153.608,68.668z M150.622,66.979c-0.226,0.235-0.372,0.558-0.44,0.967h2.491v-0.043
	c0-0.424-0.098-0.743-0.292-0.957c-0.195-0.217-0.471-0.322-0.828-0.322C151.155,66.622,150.846,66.736,150.622,66.979"/>
<path fill="#F5F5F5" d="M155.072,70.538c-0.427-0.397-0.64-1.038-0.64-1.918c0-0.63,0.121-1.151,0.364-1.569
	c0.245-0.41,0.559-0.72,0.943-0.906c0.384-0.188,0.794-0.289,1.229-0.289c0.502,0,1.027,0.147,1.577,0.438l-0.366,0.751
	c-0.269-0.126-0.498-0.218-0.691-0.271c-0.194-0.055-0.395-0.084-0.601-0.084c-0.45,0-0.8,0.174-1.052,0.512
	c-0.251,0.34-0.376,0.818-0.376,1.421c0,0.599,0.127,1.024,0.381,1.282c0.255,0.257,0.602,0.388,1.035,0.388
	c0.258,0,0.496-0.038,0.702-0.123c0.209-0.073,0.441-0.19,0.693-0.335l0.387,0.699c-0.281,0.183-0.573,0.328-0.873,0.439
	c-0.301,0.109-0.634,0.166-1,0.166C156.068,71.139,155.498,70.938,155.072,70.538"/>
<path fill="#F5F5F5" d="M163.525,66.223c0.274,0.244,0.41,0.641,0.41,1.188V71h-0.979v-3.188c0-0.281-0.028-0.502-0.088-0.658
	c-0.054-0.155-0.151-0.271-0.282-0.336c-0.136-0.066-0.318-0.104-0.544-0.104c-0.229,0-0.474,0.034-0.728,0.097
	c-0.256,0.058-0.492,0.143-0.713,0.248V71h-0.984v-7.865l0.984-0.113v3.328c0.623-0.33,1.227-0.494,1.808-0.494
	C162.879,65.855,163.253,65.975,163.525,66.223"/>
<path fill="#F5F5F5" d="M169.557,68.668h-3.481c0.007,0.573,0.146,0.986,0.416,1.245c0.271,0.257,0.62,0.394,1.045,0.394
	c0.308,0,0.565-0.041,0.793-0.121c0.229-0.072,0.478-0.189,0.751-0.354l0.376,0.699c-0.625,0.402-1.278,0.605-1.967,0.605
	c-0.729,0-1.316-0.203-1.75-0.609c-0.441-0.406-0.659-1.059-0.659-1.941c0-0.502,0.092-0.955,0.271-1.369
	c0.188-0.406,0.457-0.736,0.816-0.986c0.364-0.248,0.813-0.375,1.334-0.375c0.441,0,0.82,0.094,1.129,0.271
	c0.316,0.178,0.551,0.424,0.71,0.736c0.159,0.312,0.24,0.672,0.24,1.07L169.557,68.668z M166.572,66.979
	c-0.229,0.235-0.377,0.558-0.441,0.967h2.489v-0.043c0-0.424-0.095-0.743-0.292-0.957c-0.193-0.217-0.467-0.322-0.826-0.322
	C167.105,66.622,166.796,66.736,166.572,66.979"/>
<path fill="#F5F5F5" d="M173.58,65.883c0.105,0.016,0.221,0.035,0.343,0.068l-0.185,1.02c-0.254-0.097-0.491-0.142-0.707-0.142
	c-0.242,0-0.469,0.052-0.674,0.163c-0.205,0.105-0.401,0.306-0.596,0.6V71h-0.979v-5.018l0.979-0.101v0.72
	c0.193-0.246,0.412-0.431,0.663-0.557c0.253-0.126,0.521-0.189,0.798-0.189C173.355,65.855,173.477,65.863,173.58,65.883"/>
<path fill="#F5F5F5" d="M174.906,70.538c-0.428-0.397-0.643-1.038-0.643-1.918c0-0.63,0.123-1.151,0.366-1.569
	c0.246-0.41,0.562-0.72,0.945-0.906c0.382-0.188,0.792-0.289,1.228-0.289c0.506,0,1.03,0.147,1.577,0.438l-0.362,0.751
	c-0.272-0.126-0.504-0.218-0.695-0.271c-0.193-0.055-0.396-0.084-0.602-0.084c-0.447,0-0.797,0.174-1.049,0.512
	c-0.255,0.34-0.38,0.818-0.38,1.421c0,0.599,0.125,1.024,0.383,1.282c0.255,0.257,0.603,0.388,1.036,0.388
	c0.262,0,0.491-0.038,0.702-0.123c0.209-0.073,0.44-0.19,0.692-0.335l0.389,0.699c-0.285,0.183-0.576,0.328-0.876,0.439
	c-0.3,0.109-0.638,0.166-0.995,0.166C175.902,71.139,175.33,70.938,174.906,70.538"/>
<path fill="#F5F5F5" d="M183.363,66.223c0.271,0.244,0.41,0.641,0.41,1.188V71h-0.984v-3.188c0-0.281-0.029-0.502-0.084-0.658
	c-0.059-0.155-0.152-0.271-0.289-0.336c-0.132-0.066-0.313-0.104-0.542-0.104c-0.228,0-0.468,0.034-0.724,0.097
	c-0.258,0.058-0.494,0.143-0.717,0.248V71h-0.982v-7.865l0.982-0.113v3.328c0.625-0.33,1.229-0.494,1.805-0.494
	C182.715,65.855,183.085,65.975,183.363,66.223"/>
<path fill="#F5F5F5" d="M189.395,68.668h-3.486c0.008,0.573,0.148,0.986,0.416,1.245c0.271,0.257,0.621,0.394,1.049,0.394
	c0.301,0,0.566-0.041,0.795-0.121c0.223-0.072,0.475-0.189,0.745-0.354l0.38,0.699c-0.628,0.402-1.281,0.605-1.968,0.605
	c-0.731,0-1.316-0.203-1.755-0.609c-0.438-0.406-0.652-1.059-0.652-1.941c0-0.502,0.088-0.955,0.271-1.369
	c0.184-0.406,0.455-0.736,0.819-0.986c0.359-0.248,0.804-0.375,1.327-0.375c0.443,0,0.816,0.094,1.137,0.271
	c0.309,0.178,0.541,0.424,0.705,0.736c0.161,0.313,0.241,0.672,0.241,1.07L189.395,68.668z M186.404,66.979
	c-0.225,0.235-0.368,0.558-0.44,0.967h2.493v-0.043c0-0.424-0.098-0.743-0.29-0.957c-0.198-0.217-0.469-0.322-0.832-0.322
	C186.941,66.622,186.629,66.736,186.404,66.979"/>
<path fill="#F5F5F5" d="M197.438,68.668h-3.483c0.007,0.573,0.146,0.986,0.417,1.245c0.268,0.257,0.617,0.394,1.044,0.394
	c0.308,0,0.569-0.041,0.794-0.121c0.225-0.072,0.473-0.189,0.749-0.354l0.377,0.699c-0.624,0.402-1.278,0.605-1.967,0.605
	c-0.731,0-1.312-0.203-1.75-0.609s-0.658-1.059-0.658-1.941c0-0.502,0.088-0.955,0.271-1.369c0.188-0.406,0.459-0.736,0.822-0.986
	c0.358-0.248,0.801-0.375,1.327-0.375c0.44,0,0.822,0.094,1.132,0.271c0.314,0.178,0.549,0.424,0.707,0.736
	c0.16,0.313,0.241,0.672,0.241,1.07L197.438,68.668z M194.451,66.979c-0.227,0.235-0.377,0.558-0.441,0.967h2.493v-0.043
	c0-0.424-0.099-0.743-0.295-0.957c-0.192-0.217-0.47-0.322-0.828-0.322C194.984,66.622,194.676,66.736,194.451,66.979"/>
<path fill="#F5F5F5" d="M203.002,67.443V71h-0.979v-3.188c0-0.281-0.032-0.502-0.09-0.658c-0.059-0.155-0.154-0.271-0.285-0.336
	c-0.133-0.066-0.314-0.104-0.543-0.104s-0.469,0.034-0.732,0.099c-0.258,0.065-0.502,0.15-0.73,0.254V71h-0.98v-5.004l0.98-0.113
	v0.475c0.642-0.334,1.248-0.502,1.83-0.502C202.49,65.855,203.002,66.385,203.002,67.443"/>
<path fill="#F5F5F5" d="M207.711,70.973c-0.359-0.113-0.691-0.281-0.995-0.509l0.433-0.694c0.56,0.391,1.14,0.592,1.738,0.592
	c0.344,0,0.607-0.059,0.791-0.18c0.18-0.119,0.271-0.289,0.271-0.52c0-0.18-0.081-0.34-0.242-0.475
	c-0.163-0.129-0.453-0.252-0.861-0.357l-0.357-0.092c-0.531-0.143-0.922-0.321-1.174-0.543c-0.244-0.227-0.365-0.525-0.365-0.897
	c0-0.284,0.078-0.532,0.234-0.75c0.162-0.217,0.383-0.386,0.672-0.506c0.285-0.124,0.605-0.187,0.965-0.187
	c0.345,0,0.673,0.041,0.984,0.119c0.318,0.082,0.646,0.217,0.971,0.406l-0.4,0.698c-0.313-0.166-0.583-0.285-0.811-0.351
	c-0.231-0.063-0.477-0.09-0.729-0.09c-0.277,0-0.488,0.047-0.648,0.158s-0.233,0.256-0.233,0.439c0,0.158,0.062,0.285,0.188,0.371
	c0.123,0.092,0.344,0.177,0.656,0.262l0.354,0.091c0.434,0.112,0.783,0.24,1.048,0.388c0.258,0.143,0.45,0.318,0.577,0.52
	c0.121,0.205,0.184,0.441,0.184,0.73c0,0.301-0.076,0.567-0.236,0.799c-0.154,0.237-0.385,0.418-0.689,0.543
	c-0.305,0.133-0.671,0.197-1.107,0.197C208.475,71.139,208.066,71.081,207.711,70.973"/>
<path fill="#F5F5F5" d="M212.341,70.538c-0.43-0.397-0.641-1.038-0.641-1.918c0-0.63,0.122-1.151,0.362-1.569
	c0.248-0.41,0.561-0.72,0.942-0.906c0.39-0.188,0.793-0.289,1.229-0.289c0.504,0,1.029,0.147,1.578,0.438l-0.367,0.751
	c-0.27-0.126-0.498-0.218-0.69-0.271c-0.196-0.055-0.394-0.084-0.604-0.084c-0.448,0-0.793,0.174-1.049,0.512
	c-0.25,0.34-0.377,0.818-0.377,1.421c0,0.599,0.129,1.024,0.381,1.282c0.258,0.257,0.604,0.388,1.035,0.388
	c0.264,0,0.496-0.038,0.705-0.123c0.207-0.073,0.44-0.19,0.688-0.335l0.39,0.699c-0.277,0.183-0.572,0.328-0.874,0.439
	c-0.3,0.109-0.632,0.166-0.998,0.166C213.339,71.139,212.766,70.938,212.341,70.538"/>
<path fill="#F5F5F5" d="M217.023,64.879c-0.11-0.064-0.191-0.146-0.256-0.255c-0.065-0.104-0.099-0.224-0.099-0.347
	c0-0.127,0.032-0.242,0.099-0.353c0.063-0.104,0.146-0.192,0.256-0.259c0.105-0.063,0.223-0.098,0.345-0.098
	c0.129,0,0.243,0.033,0.354,0.098c0.104,0.064,0.191,0.152,0.256,0.259c0.063,0.109,0.098,0.226,0.098,0.353
	c0,0.123-0.033,0.24-0.098,0.347c-0.063,0.108-0.152,0.19-0.256,0.255c-0.109,0.068-0.226,0.098-0.354,0.098
	C217.246,64.977,217.13,64.947,217.023,64.879 M216.887,71v-5.004l0.98-0.113V71H216.887z"/>
<path fill="#F5F5F5" d="M223.548,68.668h-3.485c0.006,0.573,0.148,0.986,0.42,1.245c0.268,0.257,0.613,0.394,1.045,0.394
	c0.303,0,0.57-0.041,0.789-0.121c0.228-0.072,0.479-0.189,0.752-0.354l0.377,0.699c-0.623,0.402-1.279,0.605-1.965,0.605
	c-0.733,0-1.315-0.203-1.754-0.609c-0.438-0.406-0.66-1.059-0.66-1.941c0-0.502,0.097-0.955,0.277-1.369
	c0.182-0.406,0.453-0.736,0.816-0.986c0.363-0.248,0.806-0.375,1.332-0.375c0.439,0,0.816,0.094,1.131,0.271
	c0.313,0.178,0.548,0.424,0.707,0.736c0.16,0.313,0.242,0.672,0.242,1.07L223.548,68.668z M220.563,66.979
	c-0.228,0.235-0.373,0.558-0.443,0.967h2.492v-0.043c0-0.424-0.098-0.743-0.295-0.957c-0.189-0.217-0.469-0.322-0.824-0.322
	C221.093,66.622,220.785,66.736,220.563,66.979"/>
<path fill="#F5F5F5" d="M229.111,67.443V71h-0.979v-3.188c0-0.281-0.028-0.502-0.085-0.658c-0.061-0.155-0.158-0.271-0.289-0.336
	c-0.133-0.066-0.314-0.104-0.543-0.104c-0.227,0-0.471,0.034-0.729,0.099c-0.262,0.065-0.506,0.15-0.729,0.254V71h-0.987v-5.004
	l0.987-0.113v0.475c0.634-0.334,1.248-0.502,1.824-0.502C228.602,65.855,229.111,66.385,229.111,67.443"/>
<path fill="#F5F5F5" d="M230.895,70.538c-0.424-0.397-0.641-1.038-0.641-1.918c0-0.63,0.122-1.151,0.366-1.569
	c0.243-0.41,0.56-0.72,0.944-0.906c0.381-0.188,0.791-0.289,1.228-0.289c0.502,0,1.028,0.147,1.576,0.438l-0.365,0.751
	c-0.265-0.126-0.5-0.218-0.692-0.271c-0.192-0.055-0.39-0.084-0.599-0.084c-0.448,0-0.799,0.174-1.051,0.512
	c-0.251,0.34-0.375,0.818-0.375,1.421c0,0.599,0.124,1.024,0.382,1.282c0.251,0.257,0.6,0.388,1.036,0.388
	c0.258,0,0.491-0.038,0.698-0.123c0.214-0.073,0.439-0.19,0.695-0.335l0.385,0.699c-0.28,0.183-0.57,0.328-0.873,0.439
	c-0.303,0.109-0.637,0.166-1.002,0.166C231.895,71.139,231.322,70.938,230.895,70.538"/>
<path fill="#F5F5F5" d="M239.525,68.668h-3.488c0.007,0.573,0.146,0.986,0.414,1.245c0.275,0.257,0.625,0.394,1.049,0.394
	c0.305,0,0.568-0.041,0.793-0.121c0.229-0.072,0.475-0.189,0.75-0.354l0.377,0.699c-0.624,0.402-1.275,0.605-1.966,0.605
	c-0.729,0-1.317-0.203-1.753-0.609c-0.441-0.406-0.66-1.059-0.66-1.941c0-0.502,0.094-0.955,0.277-1.369
	c0.185-0.406,0.451-0.736,0.813-0.986c0.363-0.248,0.812-0.375,1.337-0.375c0.438,0,0.817,0.094,1.127,0.271
	c0.313,0.178,0.553,0.424,0.709,0.736c0.161,0.313,0.239,0.672,0.239,1.07L239.525,68.668z M236.533,66.979
	c-0.225,0.235-0.37,0.558-0.438,0.967h2.488v-0.043c0-0.424-0.096-0.743-0.292-0.957c-0.192-0.217-0.472-0.322-0.824-0.322
	C237.072,66.622,236.76,66.736,236.533,66.979"/>
<path fill="#F5F5F5" d="M241.167,70.973c-0.36-0.113-0.688-0.281-0.995-0.509l0.438-0.694c0.555,0.391,1.135,0.592,1.738,0.592
	c0.344,0,0.604-0.059,0.786-0.18c0.183-0.119,0.271-0.289,0.271-0.52c0-0.18-0.08-0.34-0.243-0.475
	c-0.162-0.129-0.451-0.252-0.861-0.357l-0.353-0.092c-0.536-0.143-0.926-0.321-1.176-0.543c-0.246-0.227-0.367-0.525-0.367-0.897
	c0-0.284,0.078-0.532,0.236-0.75c0.159-0.217,0.385-0.386,0.668-0.506c0.289-0.124,0.606-0.187,0.967-0.187
	c0.347,0,0.677,0.041,0.986,0.119c0.319,0.082,0.643,0.217,0.969,0.406l-0.399,0.698c-0.313-0.166-0.585-0.285-0.808-0.351
	c-0.232-0.063-0.477-0.09-0.734-0.09c-0.277,0-0.486,0.047-0.645,0.158c-0.16,0.111-0.236,0.256-0.236,0.439
	c0,0.158,0.063,0.285,0.189,0.371c0.125,0.092,0.346,0.177,0.655,0.262l0.354,0.091c0.438,0.112,0.785,0.24,1.047,0.388
	c0.265,0.143,0.453,0.318,0.576,0.52c0.121,0.205,0.187,0.441,0.187,0.73c0,0.301-0.082,0.567-0.237,0.799
	c-0.156,0.237-0.387,0.418-0.693,0.543c-0.299,0.133-0.67,0.197-1.104,0.197C241.93,71.139,241.525,71.081,241.167,70.973"/>
<path fill="#F5F5F5" d="M252.55,63.021V71h-0.893l-0.048-0.363c-0.273,0.158-0.549,0.279-0.834,0.368
	c-0.279,0.089-0.543,0.134-0.787,0.134c-0.44,0-0.82-0.104-1.129-0.304c-0.315-0.198-0.555-0.495-0.717-0.872
	c-0.162-0.375-0.244-0.818-0.244-1.328c0-0.58,0.111-1.078,0.336-1.494c0.223-0.422,0.529-0.74,0.92-0.959
	c0.387-0.218,0.83-0.326,1.326-0.326c0.326,0,0.688,0.054,1.088,0.151v-2.872L252.55,63.021z M249.293,69.878
	c0.227,0.274,0.555,0.412,0.971,0.412c0.44,0,0.875-0.126,1.307-0.377v-3.103c-0.346-0.123-0.678-0.178-1.012-0.178
	c-0.312,0-0.588,0.071-0.824,0.211c-0.239,0.145-0.43,0.362-0.572,0.657c-0.143,0.298-0.211,0.672-0.211,1.11
	C248.95,69.184,249.063,69.607,249.293,69.878"/>
<path fill="#F5F5F5" d="M258.387,65.883V71h-0.878l-0.058-0.378c-0.586,0.347-1.178,0.517-1.784,0.517
	c-0.461,0-0.841-0.134-1.133-0.396c-0.298-0.263-0.445-0.664-0.445-1.192v-3.555l0.988-0.113v3.381c0,0.248,0.026,0.449,0.087,0.596
	c0.064,0.148,0.158,0.263,0.296,0.322c0.14,0.067,0.329,0.1,0.573,0.1c0.365,0,0.82-0.141,1.371-0.426v-3.858L258.387,65.883z"/>
<path fill="#F5F5F5" d="M267.074,67.443V71h-0.987v-3.188c0-0.281-0.022-0.502-0.082-0.658c-0.06-0.155-0.155-0.271-0.286-0.336
	c-0.134-0.066-0.316-0.104-0.539-0.104c-0.23,0-0.479,0.034-0.734,0.099c-0.264,0.065-0.5,0.15-0.731,0.254V71h-0.979v-5.004
	l0.979-0.113v0.475c0.642-0.334,1.248-0.502,1.829-0.502C266.563,65.855,267.074,66.385,267.074,67.443"/>
<path fill="#F5F5F5" d="M272.857,65.883V71h-0.883l-0.057-0.378c-0.587,0.347-1.182,0.517-1.785,0.517
	c-0.464,0-0.841-0.134-1.137-0.396c-0.293-0.263-0.439-0.664-0.439-1.192v-3.555l0.983-0.113v3.381c0,0.248,0.026,0.449,0.091,0.596
	c0.061,0.148,0.162,0.263,0.297,0.322c0.143,0.067,0.324,0.1,0.571,0.1c0.366,0,0.825-0.141,1.371-0.426v-3.858L272.857,65.883z"/>
<path fill="#F5F5F5" d="M281.334,66.223c0.256,0.244,0.389,0.641,0.389,1.188V71h-0.984v-3.188c0-0.281-0.025-0.502-0.077-0.658
	c-0.056-0.155-0.136-0.271-0.255-0.336c-0.108-0.066-0.271-0.104-0.479-0.104c-0.222,0-0.447,0.034-0.697,0.099
	c-0.246,0.065-0.471,0.15-0.685,0.254c0.015,0.154,0.024,0.27,0.024,0.344V71h-0.984v-3.188c0-0.281-0.021-0.502-0.074-0.658
	c-0.051-0.155-0.132-0.271-0.246-0.336c-0.113-0.066-0.272-0.104-0.479-0.104c-0.214,0-0.438,0.034-0.671,0.099
	c-0.236,0.065-0.463,0.146-0.674,0.246V71h-0.987v-5.004l0.987-0.113v0.475c0.582-0.334,1.156-0.502,1.711-0.502
	c0.563,0,0.957,0.19,1.188,0.562c0.274-0.155,0.585-0.293,0.933-0.401c0.346-0.104,0.685-0.158,1.023-0.158
	C280.727,65.855,281.072,65.975,281.334,66.223"/>
<path fill="#F5F5F5" d="M287.342,68.671h-3.482c0.008,0.57,0.146,0.983,0.416,1.242c0.27,0.257,0.617,0.394,1.05,0.394
	c0.302,0,0.565-0.041,0.788-0.121c0.229-0.072,0.476-0.193,0.75-0.354l0.378,0.699c-0.624,0.402-1.282,0.605-1.968,0.605
	c-0.729,0-1.313-0.203-1.75-0.613c-0.438-0.402-0.658-1.056-0.658-1.938c0-0.502,0.091-0.955,0.277-1.369
	c0.182-0.407,0.451-0.735,0.818-0.987c0.357-0.246,0.799-0.373,1.324-0.373c0.445,0,0.822,0.092,1.134,0.271
	c0.313,0.177,0.55,0.424,0.708,0.735c0.162,0.313,0.239,0.673,0.239,1.072L287.342,68.671z M284.355,66.979
	c-0.227,0.235-0.369,0.558-0.439,0.967h2.493v-0.043c0-0.424-0.099-0.743-0.296-0.959c-0.189-0.215-0.469-0.32-0.828-0.32
	C284.893,66.622,284.58,66.736,284.355,66.979 M284.727,65.411l-0.373-0.442l1.778-1.453l0.585,0.812L284.727,65.411z"/>
<path fill="#F5F5F5" d="M291.365,65.883c0.111,0.016,0.219,0.035,0.342,0.068l-0.184,1.02c-0.258-0.097-0.494-0.142-0.705-0.142
	c-0.244,0-0.471,0.052-0.678,0.163c-0.205,0.105-0.399,0.306-0.592,0.6V71h-0.986v-5.018l0.986-0.101v0.72
	c0.191-0.246,0.41-0.431,0.661-0.557c0.255-0.126,0.519-0.189,0.802-0.189C291.146,65.855,291.259,65.863,291.365,65.883"/>
<path fill="#F5F5F5" d="M292.814,64.879c-0.104-0.064-0.19-0.146-0.252-0.255c-0.064-0.104-0.101-0.224-0.101-0.347
	c0-0.127,0.035-0.242,0.101-0.353c0.062-0.104,0.148-0.192,0.252-0.259c0.106-0.063,0.227-0.098,0.346-0.098
	c0.128,0,0.247,0.033,0.354,0.098c0.103,0.064,0.193,0.152,0.26,0.259c0.061,0.109,0.094,0.226,0.094,0.353
	c0,0.123-0.033,0.24-0.094,0.347c-0.065,0.108-0.157,0.19-0.26,0.255c-0.106,0.068-0.227,0.098-0.354,0.098
	C293.041,64.977,292.922,64.947,292.814,64.879 M292.682,71v-5.004l0.98-0.113V71H292.682z"/>
<path fill="#F5F5F5" d="M299.516,66.188v6.934h-0.982v-2.432c-0.537,0.299-1.081,0.447-1.631,0.447
	c-0.438,0-0.813-0.109-1.112-0.318c-0.308-0.213-0.536-0.506-0.694-0.875c-0.154-0.369-0.232-0.789-0.232-1.262
	c0-0.682,0.143-1.231,0.428-1.656c0.285-0.42,0.648-0.723,1.086-0.898c0.432-0.18,0.883-0.271,1.346-0.271
	C298.213,65.855,298.814,65.964,299.516,66.188 M298.532,69.959v-3.197c-0.291-0.061-0.55-0.095-0.776-0.095
	c-0.543,0-0.986,0.162-1.326,0.478c-0.346,0.316-0.516,0.836-0.516,1.56c0,0.501,0.111,0.896,0.32,1.173
	c0.222,0.273,0.529,0.414,0.938,0.414C297.6,70.29,298.051,70.178,298.532,69.959"/>
<path fill="#F5F5F5" d="M305.354,65.883V71h-0.883l-0.053-0.378c-0.591,0.347-1.184,0.517-1.785,0.517
	c-0.464,0-0.841-0.134-1.14-0.396c-0.291-0.263-0.438-0.664-0.438-1.192v-3.555l0.984-0.113v3.381c0,0.248,0.029,0.449,0.091,0.596
	c0.058,0.148,0.158,0.263,0.295,0.322c0.136,0.067,0.326,0.1,0.573,0.1c0.365,0,0.825-0.141,1.372-0.426v-3.858L305.354,65.883z"/>
<path fill="#F5F5F5" d="M311.036,68.668h-3.488c0.007,0.573,0.147,0.986,0.415,1.245c0.273,0.257,0.618,0.394,1.045,0.394
	c0.305,0,0.572-0.041,0.797-0.121c0.223-0.072,0.475-0.189,0.745-0.354l0.38,0.699c-0.623,0.402-1.279,0.605-1.968,0.605
	c-0.729,0-1.315-0.203-1.753-0.609s-0.656-1.059-0.656-1.941c0-0.502,0.09-0.955,0.273-1.369c0.186-0.406,0.453-0.736,0.816-0.986
	c0.362-0.248,0.808-0.375,1.33-0.375c0.443,0,0.82,0.094,1.133,0.271s0.549,0.424,0.709,0.736c0.158,0.312,0.236,0.672,0.236,1.07
	L311.036,68.668z M308.044,66.979c-0.229,0.235-0.37,0.558-0.44,0.967h2.492v-0.043c0-0.424-0.099-0.743-0.291-0.957
	c-0.193-0.217-0.473-0.322-0.832-0.322C308.58,66.622,308.268,66.736,308.044,66.979"/>
<path fill="#F5F5F5" d="M7.665,19.67c6.307-1.647,12.616-3.284,18.918-4.951c0.917-0.243,1.357-0.208,1.484,0.962
	c0.183,1.703,0.633,3.381,1.034,5.052c0.362,1.524,1.097,1.939,2.642,1.563c1.874-0.458,3.75-0.917,5.612-1.424
	c1.887-0.514,2.187-1.051,1.701-2.921c-0.456-1.767-0.872-3.548-1.451-5.273c-0.238-0.708,0.004-0.789,0.526-0.923
	c6.062-1.566,12.119-3.135,18.173-4.72c0.508-0.133,0.889-0.147,1.187,0.384c1.512,2.724,3.046,5.438,4.608,8.22
	c-3.694,0.178-6.979,1.394-10.318,2.323c-1.642,0.457-2.03,1.592-1.398,3.169c0.68,1.693,1.345,3.394,2.091,5.059
	c0.586,1.308,0.208,2.134-1.112,2.52c-1.55,0.453-3.115,0.865-4.69,1.228c-1.308,0.305-2.221-0.142-2.628-1.522
	c-0.488-1.649-1.049-3.275-1.589-4.911c-0.637-1.931-1.705-2.655-3.651-2.21c-2.642,0.601-5.269,1.294-7.865,2.066
	c-1.947,0.58-2.491,1.688-2.085,3.711c0.328,1.635,0.662,3.271,0.974,4.909c0.315,1.654-0.06,2.299-1.698,2.781
	c-1.45,0.426-2.91,0.831-4.385,1.153c-1.56,0.337-2.123-0.088-2.33-1.639c-0.232-1.758-0.42-3.52-0.646-5.281
	c-0.253-1.983-1.169-2.723-3.09-2.205c-3.206,0.869-6.569,1.242-9.547,2.879c-0.122,0.068-0.309,0.021-0.464,0.028V19.67H7.665z"/>
<path fill="#F5F5F5" d="M53.709,62.738c1.137-2.024,0.796-3.926,0.174-5.863c-1.165-3.628-2.277-7.27-3.387-10.906
	c-0.526-1.723-0.077-2.544,1.674-3.016c2.166-0.584,4.355-1.077,6.522-1.653c3.135-0.838,4.042-2.723,2.74-5.624
	c-0.938-2.094-1.906-4.175-2.842-6.272c-0.683-1.533-0.399-2.147,1.243-2.635c1.2-0.354,2.417-0.648,3.628-0.964
	c1.205-0.313,2.451-0.525,3.322-1.799c2.175,3.804,4.244,7.416,6.308,11.036c3.516,6.163,7.022,12.327,10.55,18.487
	c0.422,0.734,0.68,1.211-0.481,1.518c-9.633,2.537-19.254,5.12-28.878,7.691C54.188,62.766,54.084,62.738,53.709,62.738"/>
<path fill="#F5F5F5" d="M38.674,67.161c-6.251,1.655-12.142,3.224-18.034,4.784c-3.679,0.971-7.37,1.895-11.032,2.923
	c-1.1,0.315-1.328,0.014-1.332-1.034c-0.065-10.952-0.158-21.9-0.273-32.855c-0.009-0.943,0.093-1.364,1.255-1.287
	c1.678,0.111,3.246-0.682,4.864-1.055c2.003-0.462,2.514-0.132,2.702,1.943c0.208,2.285,0.392,4.57,0.558,6.855
	c0.195,2.67,1.979,4.049,4.605,3.405c2.631-0.647,5.23-1.425,7.847-2.136c2.337-0.639,2.995-0.237,3.39,2.176
	c0.569,3.497,1.153,6.995,1.608,10.514C35.146,63.816,36.026,65.803,38.674,67.161"/>
<path fill="#F5F5F5" d="M43.119,32.176c1.319,2.046,1.814,4.404,2.297,6.72c0.244,1.163-0.709,2.038-1.861,2.36
	c-2.399,0.676-4.802,1.354-7.236,1.881c-1.932,0.418-2.913-0.31-3.296-2.291c-0.375-1.924-1.116-3.798-0.884-5.813
	c-0.19-1.13,0.394-1.797,1.378-2.144c2.465-0.866,5.012-1.438,7.571-1.939C42.073,30.754,42.833,31.12,43.119,32.176"/>
<path fill="#CECECE" d="M43.119,32.176c-0.962-0.563-1.949-0.578-3.015-0.277c-1.758,0.497-3.535,0.924-5.31,1.355
	c-1.11,0.271-2.041,0.78-2.656,1.777c-1.749-2.269-1.807-5.037-2.132-7.686c-0.142-1.149,0.877-1.894,1.907-2.196
	c2.342-0.691,4.714-1.287,7.091-1.848c0.986-0.234,2.097,0.068,2.438,0.971C42.401,26.803,43.889,29.265,43.119,32.176"/>
<path fill="#F5F5F5" d="M142.845,28.35v23.145c-3.046,1.496-5.9,2.585-8.559,3.261c-2.662,0.678-5.562,1.018-8.706,1.018
	c-5.272,0-9.576-1.043-12.913-3.121c-3.337-2.074-5.779-4.918-7.327-8.524c-1.547-3.603-2.32-7.822-2.32-12.659
	c0-5.658,1.026-10.325,3.083-14c2.053-3.677,4.799-6.359,8.233-8.054c3.433-1.692,7.277-2.538,11.534-2.538
	c5.948,0,11.219,1.451,15.814,4.352l-3.49,6.094c-3.636-2.32-7.563-3.479-11.78-3.479c-5.091,0-8.835,1.522-11.236,4.568
	c-2.4,3.047-3.599,7.279-3.599,12.694c0,5.756,1.128,10.12,3.384,13.095c2.255,2.974,5.906,4.463,10.953,4.463
	c2.958,0,5.845-0.509,8.658-1.524V35.167h-11.171l0.943-6.817H142.845z"/>
<path fill="#F5F5F5" d="M188.325,54.316v0.513h-9.358l-12.691-17.778h-5.657v17.778h-8.27V7.819h15.523
	c3.87,0,7.12,0.604,9.756,1.813c2.641,1.209,4.615,2.877,5.948,5.006c1.331,2.128,1.995,4.594,1.995,7.398
	c0,3.336-0.908,6.25-2.721,8.741c-1.813,2.491-4.465,4.244-7.943,5.261L188.325,54.316z M160.617,30.524h6.236
	c3.291,0,5.805-0.688,7.543-2.066c1.744-1.38,2.611-3.422,2.611-6.13c0-2.514-0.783-4.426-2.354-5.732
	c-1.574-1.303-3.86-1.956-6.859-1.956h-7.179L160.617,30.524L160.617,30.524z"/>
<polygon fill="#F5F5F5" points="203.416,47.934 225.831,47.934 225.831,54.829 195.146,54.829 195.146,7.819 225.465,7.819 
	225.465,14.639 203.416,14.639 203.416,27.549 222.566,27.549 221.625,34.224 203.416,34.224 "/>
<path fill="#F5F5F5" d="M283.01,52.661c-3.281-2.009-5.705-4.826-7.248-8.454c-1.55-3.626-2.322-7.881-2.322-12.768
	c0-5.803,1-10.542,3.012-14.217c2.005-3.674,4.65-6.334,7.941-7.98c3.289-1.642,6.938-2.465,10.957-2.465
	c2.948,0,5.666,0.364,8.158,1.089c2.487,0.725,4.922,1.788,7.29,3.191l-3.356,6.166c-3.785-2.273-7.701-3.409-11.738-3.409
	c-4.711,0-8.178,1.512-10.389,4.535c-2.213,3.022-3.317,7.241-3.317,12.656c0,5.563,1.218,9.879,3.646,12.951
	c2.431,3.071,5.931,4.606,10.502,4.606c2.334,0,4.396-0.304,6.194-0.906c1.796-0.607,3.646-1.461,5.543-2.575l3.279,5.946
	c-2.61,1.548-5.138,2.713-7.585,3.484c-2.439,0.773-5.107,1.162-8.016,1.162C290.482,55.673,286.301,54.666,283.01,52.661"/>
<path fill="#F5F5F5" d="M256.717,34.204c0-3.445-1.903-6.237-4.251-6.237c-2.347,0-4.249,2.792-4.249,6.237l0,0v17h8.5V34.204
	L256.717,34.204z"/>
<path fill="#F5F5F5" d="M256.717,47.213c0-3.445-1.903-6.238-4.251-6.238c-2.347,0-4.249,2.793-4.249,6.238v7.616h8.5V47.213z"/>
</svg>
